<mxfile host="app.diagrams.net" modified="2022-05-20T04:53:45.170Z" agent="5.0 (Windows NT 10.0; Win64; x64) AppleWebKit/537.36 (KHTML, like Gecko) Chrome/101.0.4951.64 Safari/537.36" etag="lhJaSza4EASmjbXpxX4B" version="18.0.5" type="github">
  <diagram id="R2lEEEUBdFMjLlhIrx00" name="Big picture">
    <mxGraphModel dx="1038" dy="521" grid="1" gridSize="10" guides="1" tooltips="1" connect="1" arrows="1" fold="1" page="1" pageScale="1" pageWidth="850" pageHeight="1100" math="0" shadow="0" extFonts="Permanent Marker^https://fonts.googleapis.com/css?family=Permanent+Marker">
      <root>
        <mxCell id="0" />
        <mxCell id="1" parent="0" />
        <mxCell id="_70DCsEFCMHdwTqX2hWj-2" value="&lt;b&gt;&lt;font style=&quot;font-size: 24px;&quot;&gt;Medallo Lab&lt;/font&gt;&lt;/b&gt;" style="text;html=1;align=center;verticalAlign=middle;resizable=0;points=[];autosize=1;strokeColor=none;fillColor=none;" vertex="1" parent="1">
          <mxGeometry x="350" y="140" width="150" height="20" as="geometry" />
        </mxCell>
        <mxCell id="_70DCsEFCMHdwTqX2hWj-4" value="" style="ellipse;whiteSpace=wrap;html=1;fillColor=#A9C4EB;strokeColor=#36393d;strokeWidth=2;" vertex="1" parent="1">
          <mxGeometry x="55" y="170" width="740" height="590" as="geometry" />
        </mxCell>
        <mxCell id="_70DCsEFCMHdwTqX2hWj-5" value="&lt;span style=&quot;font-size: 24px;&quot;&gt;&lt;b&gt;Laboratory&lt;/b&gt;&lt;/span&gt;" style="text;html=1;align=center;verticalAlign=middle;resizable=0;points=[];autosize=1;strokeColor=none;fillColor=none;" vertex="1" parent="1">
          <mxGeometry x="150" y="310" width="140" height="20" as="geometry" />
        </mxCell>
        <mxCell id="_70DCsEFCMHdwTqX2hWj-6" value="" style="endArrow=none;dashed=1;html=1;dashPattern=1 3;strokeWidth=2;rounded=0;fontSize=24;entryX=0.228;entryY=0.08;entryDx=0;entryDy=0;exitX=1.001;exitY=0.531;exitDx=0;exitDy=0;exitPerimeter=0;entryPerimeter=0;" edge="1" parent="1" source="_70DCsEFCMHdwTqX2hWj-4" target="_70DCsEFCMHdwTqX2hWj-4">
          <mxGeometry width="50" height="50" relative="1" as="geometry">
            <mxPoint x="400" y="490" as="sourcePoint" />
            <mxPoint x="450" y="440" as="targetPoint" />
            <Array as="points">
              <mxPoint x="440" y="465" />
            </Array>
          </mxGeometry>
        </mxCell>
        <mxCell id="_70DCsEFCMHdwTqX2hWj-7" value="&lt;font style=&quot;font-size: 15px;&quot;&gt;Bounded context&lt;/font&gt;" style="text;html=1;align=center;verticalAlign=middle;resizable=0;points=[];autosize=1;strokeColor=none;fillColor=none;fontSize=24;" vertex="1" parent="1">
          <mxGeometry x="155" y="325" width="130" height="40" as="geometry" />
        </mxCell>
        <mxCell id="_70DCsEFCMHdwTqX2hWj-8" style="edgeStyle=orthogonalEdgeStyle;rounded=0;orthogonalLoop=1;jettySize=auto;html=1;entryX=0.5;entryY=0;entryDx=0;entryDy=0;fontSize=13;" edge="1" parent="1" source="_70DCsEFCMHdwTqX2hWj-12" target="_70DCsEFCMHdwTqX2hWj-13">
          <mxGeometry relative="1" as="geometry" />
        </mxCell>
        <mxCell id="_70DCsEFCMHdwTqX2hWj-9" style="edgeStyle=orthogonalEdgeStyle;rounded=0;orthogonalLoop=1;jettySize=auto;html=1;fontSize=13;entryX=0.5;entryY=0;entryDx=0;entryDy=0;" edge="1" parent="1" source="_70DCsEFCMHdwTqX2hWj-12" target="_70DCsEFCMHdwTqX2hWj-14">
          <mxGeometry relative="1" as="geometry">
            <mxPoint x="300" y="570" as="targetPoint" />
          </mxGeometry>
        </mxCell>
        <mxCell id="_70DCsEFCMHdwTqX2hWj-10" style="edgeStyle=orthogonalEdgeStyle;rounded=0;orthogonalLoop=1;jettySize=auto;html=1;fontSize=13;" edge="1" parent="1" source="_70DCsEFCMHdwTqX2hWj-12" target="_70DCsEFCMHdwTqX2hWj-26">
          <mxGeometry relative="1" as="geometry">
            <Array as="points">
              <mxPoint x="370" y="535" />
            </Array>
          </mxGeometry>
        </mxCell>
        <mxCell id="_70DCsEFCMHdwTqX2hWj-11" style="edgeStyle=orthogonalEdgeStyle;rounded=0;orthogonalLoop=1;jettySize=auto;html=1;fontSize=13;startArrow=classic;startFill=1;endArrow=classic;endFill=1;" edge="1" parent="1" source="_70DCsEFCMHdwTqX2hWj-12" target="_70DCsEFCMHdwTqX2hWj-19">
          <mxGeometry relative="1" as="geometry" />
        </mxCell>
        <mxCell id="_70DCsEFCMHdwTqX2hWj-12" value="&lt;font style=&quot;font-size: 13px;&quot;&gt;Clinical laboratory&lt;br&gt;[Core subdomain]&lt;/font&gt;" style="ellipse;whiteSpace=wrap;html=1;fontSize=15;fillColor=#ffcccc;strokeColor=#36393d;" vertex="1" parent="1">
          <mxGeometry x="250" y="400" width="140" height="90" as="geometry" />
        </mxCell>
        <mxCell id="_70DCsEFCMHdwTqX2hWj-13" value="&lt;span style=&quot;background-color: initial; color: rgba(0, 0, 0, 0); font-family: monospace; font-size: 0px; text-align: start;&quot;&gt;%3CmxGraphModel%3E%3Croot%3E%3CmxCell%20id%3D%220%22%2F%3E%3CmxCell%20id%3D%221%22%20parent%3D%220%22%2F%3E%3CmxCell%20id%3D%222%22%20value%3D%22%26lt%3Bspan%20style%3D%26quot%3Bfont-size%3A%2024px%3B%26quot%3B%26gt%3B%26lt%3Bb%26gt%3BAdministration%26lt%3B%2Fb%26gt%3B%26lt%3B%2Fspan%26gt%3B%22%20style%3D%22text%3Bhtml%3D1%3Balign%3Dcenter%3BverticalAlign%3Dmiddle%3Bresizable%3D0%3Bpoints%3D%5B%5D%3Bautosize%3D1%3BstrokeColor%3Dnone%3BfillColor%3Dnone%3B%22%20vertex%3D%221%22%20parent%3D%221%22%3E%3CmxGeometry%20x%3D%22450%22%20y%3D%22680%22%20width%3D%22180%22%20height%3D%2220%22%20as%3D%22geometry%22%2F%3E%3C%2FmxCell%3E%3CmxCell%20id%3D%223%22%20value%3D%22%26lt%3Bfont%20style%3D%26quot%3Bfont-size%3A%2015px%3B%26quot%3B%26gt%3BBounded%20context%26lt%3B%2Ffont%26gt%3B%22%20style%3D%22text%3Bhtml%3D1%3Balign%3Dcenter%3BverticalAlign%3Dmiddle%3Bresizable%3D0%3Bpoints%3D%5B%5D%3Bautosize%3D1%3BstrokeColor%3Dnone%3BfillColor%3Dnone%3BfontSize%3D24%3B%22%20vertex%3D%221%22%20parent%3D%221%22%3E%3CmxGeometry%20x%3D%22465%22%20y%3D%22690%22%20width%3D%22130%22%20height%3D%2240%22%20as%3D%22geometry%22%2F%3E%3C%2FmxCell%3E%3C%2Froot%3E%3C%2FmxGraphModel%War&lt;/span&gt;&lt;span style=&quot;background-color: initial;&quot;&gt;Lab warehouse&lt;br&gt;&lt;/span&gt;[Supportive Subdomain]" style="ellipse;whiteSpace=wrap;html=1;fillColor=#d5e8d4;strokeColor=#82b366;" vertex="1" parent="1">
          <mxGeometry x="80" y="490" width="160" height="90" as="geometry" />
        </mxCell>
        <mxCell id="_70DCsEFCMHdwTqX2hWj-14" value="&lt;div style=&quot;text-align: center;&quot;&gt;&lt;/div&gt;File management&lt;span style=&quot;background-color: initial;&quot;&gt;&amp;nbsp;&lt;/span&gt;&lt;br&gt;&lt;div style=&quot;text-align: center;&quot;&gt;&lt;span style=&quot;background-color: initial;&quot;&gt;[Generic subdomain]&lt;/span&gt;&lt;/div&gt;" style="ellipse;whiteSpace=wrap;html=1;fillColor=#fff2cc;strokeColor=#d6b656;" vertex="1" parent="1">
          <mxGeometry x="255" y="560" width="130" height="90" as="geometry" />
        </mxCell>
        <mxCell id="_70DCsEFCMHdwTqX2hWj-15" value="&lt;span style=&quot;font-size: 24px;&quot;&gt;&lt;b&gt;Marketing&lt;/b&gt;&lt;/span&gt;" style="text;html=1;align=center;verticalAlign=middle;resizable=0;points=[];autosize=1;strokeColor=none;fillColor=none;" vertex="1" parent="1">
          <mxGeometry x="465" y="210" width="130" height="20" as="geometry" />
        </mxCell>
        <mxCell id="_70DCsEFCMHdwTqX2hWj-16" value="&lt;font style=&quot;font-size: 15px;&quot;&gt;Bounded context&lt;/font&gt;" style="text;html=1;align=center;verticalAlign=middle;resizable=0;points=[];autosize=1;strokeColor=none;fillColor=none;fontSize=24;" vertex="1" parent="1">
          <mxGeometry x="465" y="220" width="130" height="40" as="geometry" />
        </mxCell>
        <mxCell id="_70DCsEFCMHdwTqX2hWj-17" value="" style="edgeStyle=orthogonalEdgeStyle;rounded=0;orthogonalLoop=1;jettySize=auto;html=1;fontSize=13;" edge="1" parent="1" source="_70DCsEFCMHdwTqX2hWj-19" target="_70DCsEFCMHdwTqX2hWj-20">
          <mxGeometry relative="1" as="geometry">
            <Array as="points">
              <mxPoint x="470" y="320" />
              <mxPoint x="470" y="270" />
            </Array>
          </mxGeometry>
        </mxCell>
        <mxCell id="_70DCsEFCMHdwTqX2hWj-18" style="edgeStyle=orthogonalEdgeStyle;rounded=0;orthogonalLoop=1;jettySize=auto;html=1;entryX=0.5;entryY=0;entryDx=0;entryDy=0;fontSize=13;" edge="1" parent="1" source="_70DCsEFCMHdwTqX2hWj-19" target="_70DCsEFCMHdwTqX2hWj-21">
          <mxGeometry relative="1" as="geometry" />
        </mxCell>
        <mxCell id="_70DCsEFCMHdwTqX2hWj-19" value="&lt;font style=&quot;font-size: 13px;&quot;&gt;Comercial&amp;nbsp;&lt;span style=&quot;font-size: 12px;&quot;&gt;department&lt;/span&gt;&lt;br&gt;[Core subdomain]&lt;/font&gt;" style="ellipse;whiteSpace=wrap;html=1;fontSize=15;fillColor=#ffe6cc;strokeColor=#d79b00;" vertex="1" parent="1">
          <mxGeometry x="480" y="275" width="140" height="90" as="geometry" />
        </mxCell>
        <mxCell id="_70DCsEFCMHdwTqX2hWj-20" value="Publicity department&lt;br&gt;[Supportive subdomain]" style="ellipse;whiteSpace=wrap;html=1;fillColor=#d5e8d4;strokeColor=#82b366;" vertex="1" parent="1">
          <mxGeometry x="300" y="230" width="150" height="80" as="geometry" />
        </mxCell>
        <mxCell id="_70DCsEFCMHdwTqX2hWj-21" value="Digital department&lt;br&gt;&amp;nbsp;[Generic subdomain]" style="ellipse;whiteSpace=wrap;html=1;fillColor=#fff2cc;strokeColor=#d6b656;" vertex="1" parent="1">
          <mxGeometry x="630" y="365" width="130" height="85" as="geometry" />
        </mxCell>
        <mxCell id="_70DCsEFCMHdwTqX2hWj-22" value="" style="endArrow=none;dashed=1;html=1;dashPattern=1 3;strokeWidth=2;rounded=0;fontSize=13;exitX=0.416;exitY=0.992;exitDx=0;exitDy=0;exitPerimeter=0;" edge="1" parent="1" source="_70DCsEFCMHdwTqX2hWj-4">
          <mxGeometry width="50" height="50" relative="1" as="geometry">
            <mxPoint x="400" y="440" as="sourcePoint" />
            <mxPoint x="440" y="460" as="targetPoint" />
          </mxGeometry>
        </mxCell>
        <mxCell id="_70DCsEFCMHdwTqX2hWj-23" style="edgeStyle=orthogonalEdgeStyle;rounded=0;orthogonalLoop=1;jettySize=auto;html=1;entryX=1;entryY=0.5;entryDx=0;entryDy=0;fontSize=13;" edge="1" parent="1" source="_70DCsEFCMHdwTqX2hWj-26" target="_70DCsEFCMHdwTqX2hWj-27">
          <mxGeometry relative="1" as="geometry" />
        </mxCell>
        <mxCell id="_70DCsEFCMHdwTqX2hWj-24" style="edgeStyle=orthogonalEdgeStyle;rounded=0;orthogonalLoop=1;jettySize=auto;html=1;entryX=1;entryY=1;entryDx=0;entryDy=0;fontSize=13;" edge="1" parent="1" source="_70DCsEFCMHdwTqX2hWj-26" target="_70DCsEFCMHdwTqX2hWj-19">
          <mxGeometry relative="1" as="geometry" />
        </mxCell>
        <mxCell id="_70DCsEFCMHdwTqX2hWj-25" style="edgeStyle=none;rounded=0;orthogonalLoop=1;jettySize=auto;html=1;entryX=0.66;entryY=0.018;entryDx=0;entryDy=0;fontSize=13;startArrow=none;startFill=0;entryPerimeter=0;" edge="1" parent="1" source="_70DCsEFCMHdwTqX2hWj-26" target="_70DCsEFCMHdwTqX2hWj-28">
          <mxGeometry relative="1" as="geometry">
            <Array as="points">
              <mxPoint x="682" y="525" />
            </Array>
          </mxGeometry>
        </mxCell>
        <mxCell id="_70DCsEFCMHdwTqX2hWj-26" value="Call center&lt;br&gt;&lt;span style=&quot;font-size: 13px;&quot;&gt;[Core subdomain]&lt;/span&gt;" style="ellipse;whiteSpace=wrap;html=1;fillColor=#ffe6cc;strokeColor=#d79b00;" vertex="1" parent="1">
          <mxGeometry x="500" y="480" width="140" height="90" as="geometry" />
        </mxCell>
        <mxCell id="_70DCsEFCMHdwTqX2hWj-27" value="Tecnological department&lt;br&gt;[Supportive subdomain]" style="ellipse;whiteSpace=wrap;html=1;fillColor=#d5e8d4;strokeColor=#82b366;" vertex="1" parent="1">
          <mxGeometry x="410" y="580" width="140" height="90" as="geometry" />
        </mxCell>
        <mxCell id="_70DCsEFCMHdwTqX2hWj-28" value="Security department&lt;br&gt;[Generic subdomain]" style="ellipse;whiteSpace=wrap;html=1;fillColor=#fff2cc;strokeColor=#d6b656;" vertex="1" parent="1">
          <mxGeometry x="590" y="570" width="140" height="90" as="geometry" />
        </mxCell>
        <mxCell id="_70DCsEFCMHdwTqX2hWj-31" value="&lt;span style=&quot;font-size: 24px;&quot;&gt;&lt;b&gt;Advice&lt;/b&gt;&lt;/span&gt;" style="text;html=1;align=center;verticalAlign=middle;resizable=0;points=[];autosize=1;strokeColor=none;fillColor=none;" vertex="1" parent="1">
          <mxGeometry x="485" y="680" width="90" height="20" as="geometry" />
        </mxCell>
        <mxCell id="_70DCsEFCMHdwTqX2hWj-32" value="&lt;font style=&quot;font-size: 15px;&quot;&gt;Bounded context&lt;/font&gt;" style="text;html=1;align=center;verticalAlign=middle;resizable=0;points=[];autosize=1;strokeColor=none;fillColor=none;fontSize=24;" vertex="1" parent="1">
          <mxGeometry x="465" y="690" width="130" height="40" as="geometry" />
        </mxCell>
      </root>
    </mxGraphModel>
  </diagram>
</mxfile>
